<?xml version="1.0" encoding="UTF-8"?><svg id="Layer_1" xmlns="http://www.w3.org/2000/svg" viewBox="0 0 14.52 11.42"><defs><style>.cls-1{fill:#fff;}.cls-2{fill:#2e3191;}.cls-3{fill:#808185;}.cls-4{fill:#fdf4f8;}.cls-5{fill:#f79420;}.cls-6{fill:#231f20;}</style></defs><path class="cls-5" d="M4.04,5.9H.53c-.29,0-.53-.23-.53-.53V1.86c0-.29,.23-.53,.53-.53h3.51c.29,0,.53,.23,.53,.53v3.51c0,.29-.23,.53-.53,.53Z"/><path class="cls-3" d="M9.45,1.97c0-1.43,.72-1.97,1.6-1.97s1.6,.79,1.6,1.77h.14v.21h-3.34Z"/><path class="cls-3" d="M5.16,5.99l3.81,.55-.93,.5h-1.1l-.96,1.64s-.07,.1-.07,.19,.1,.13,.1,.13h.15"/><path class="cls-4" d="M9.71,1.97s-.01,1.11,1.32,1.11,1.25-1.11,1.25-1.11"/><path class="cls-3" d="M8.5,9c.27,0,.63-.2,.8-.29s.82-.62,.98-.76,.71-.72,.87-.99c.17-.27,.21-1.05,.21-1.05V3.88s.07-.14,.19-.26c.09-.09,.2-.18,.32-.21,.15-.03,.24,.03,.3,.1,.05,.06,.07,.15,.06,.23s-.02,.16-.08,.21c-.04,.04-.09,.05-.09,.05l.57,2.65s.09,.49,.32,.7c.32,.3,1.28,.99,1.37,1.08,.1,.09,.18,.24,.19,.5s0,.52-.06,.6-.18,.13-.18,.13H1.02s-.08-.01-.12-.04c-.07-.05-.19-.15-.19-.25,0-.15,.05-.34,.19-.55,.14-.21,1.26-1.41,1.26-1.41,0,0,.13-.15,.13-.23,0-.06,0-.24-.09-.31-.13-.12-.25-.32-.28-.41-.02-.06-.08-.5,.26-.5s2.98,0,2.98,0"/><path class="cls-6" d="M10.78,9.67s-.45,1.75,1.32,1.75,2.18-1.75,2.18-1.75"/><path class="cls-1" d="M11.76,9.67s-.19,.74,.55,.74,.92-.74,.92-.74"/><path class="cls-6" d="M4.65,9.67s-.43,1.47-1.68,1.64c-.15,.02-.31,.05-.49,.05-.21,0-.36-.02-.53-.06-.99-.22-.79-1.62-.79-1.62"/><path class="cls-1" d="M3.66,9.65s-.18,.62-.7,.68c-.06,0-.13,.02-.2,.02-.09,0-.15,0-.22-.02-.41-.09-.33-.68-.33-.68"/><path class="cls-2" d="M10.76,3.07c-.03,.16-.48,.44-.48,.44,0,0-.38,.2-.36,.34s.2,.14,.2,.14l1.44-.36-.13,.17c-.04,.06-.07,.13-.07,.2v.25l-1.7,.6s-.29,.09-.41,.08c-.06,0-.15-.02-.21-.05-.06-.02-.09-.07-.09-.13l.04-.81s-.58,.06-.84,.29c-.13,.11-.28,.36-.28,.56,0,.1,.03,.19,.06,.25,.03,.06,.08,.1,.14,.13,.21,.1,.79,.4,.92,.48,.17,.1,.46,.3,.6,.43,.14,.12,.21,.31,.2,.49s-.19,.28-.26,.36c-.07,.08-1.33,.92-1.61,1.1-.04,.03-.07,.07-.09,.11-.04,.1-.08,.28,.11,.34,.26,.09,.53,.28,.56,.3,.02,.02,.03,.06,.04,.08v.02c0,.06-.04,.11-.04,.11,0,0-2.28,0-2.33,0-.04,0-.08-.07-.08-.13,0-.07,.03-.13,.03-.13,0,0,.08-.23,.4-.49,.12-.09,1.54-1.24,1.66-1.32,.12-.08,.21-.19,.21-.27s-.13-.18-.29-.23c-.16-.05-.92-.12-1.55-.15-.63-.03-1.04-.13-1.26-.21-.22-.09-.41-.39-.43-.58-.02-.19-.01-.4,.54-1.07s1.83-1.28,2.58-1.6,1.78-.52,1.78-.52"/></svg>